<svg width="9" height="18" viewBox="0 0 9 18" fill="none" xmlns="http://www.w3.org/2000/svg">
<path d="M7.773 3.867V13.747C7.773 15.447 6.32 16.84 4.5 16.84C2.68 16.84 1.227 15.467 1.227 13.746V3.093C1.227 2.03 2.147 1.16 3.273 1.16C4.398 1.16 5.318 2.03 5.318 3.093V12.219C5.318 12.645 4.95 12.993 4.5 12.993C4.05 12.993 3.682 12.645 3.682 12.219V3.867H2.455V12.219C2.455 13.283 3.375 14.153 4.5 14.153C5.625 14.153 6.545 13.283 6.545 12.219V3.093C6.545 1.392 5.093 0 3.273 0C1.453 0 0 1.373 0 3.093V13.747C0 16.105 2.005 18 4.5 18C6.995 18 9 16.105 9 13.746V3.866H7.773V3.867Z" fill="#7B88B2"/>
</svg>
