<svg width="12" height="12" viewBox="0 0 12 12" fill="none" xmlns="http://www.w3.org/2000/svg">
<path fill-rule="evenodd" clip-rule="evenodd" d="M10.0899 0.292831L11.7058 1.90868L7.61584 5.99988L11.7072 10.0899L10.0913 11.7058L6.00005 7.61579L4.53617 9.07967L1.91012 11.7072L0.294177 10.0913L4.38428 6.00012L0.292542 1.90987L1.91027 0.294422L5.99994 4.38409L10.0899 0.292831ZM4.18187 8.01975L5.99994 6.20168L10.0912 10.2917L10.2928 10.09L6.20163 6.00011L10.2917 1.90879L10.09 1.70716L6.00005 5.79842L4.18252 3.98088L3.98088 4.18251L5.79824 5.99987L3.98076 7.81863L4.18187 8.01975ZM3.27378 8.52587L3.47487 8.72696L1.90992 10.2928L1.70839 10.0913L3.27378 8.52587ZM3.27368 3.47551L3.47541 3.27377L1.90977 1.70814L1.70746 1.91017L3.27368 3.47551Z" fill="#DADDE8"/>
</svg>
