<svg width="18" height="13" viewBox="0 0 18 13" fill="none" xmlns="http://www.w3.org/2000/svg">
<path d="M15.3288 0.568687C15.3661 0.534143 15.4102 0.507332 15.4585 0.489883C15.5068 0.472434 15.5582 0.464712 15.6096 0.467187C15.7266 0.467187 15.8328 0.500437 15.9264 0.568687L16.911 1.56094C17.0046 1.62919 17.0514 1.71844 17.0514 1.83394C17.0508 1.89187 17.0381 1.94907 17.0139 2.00203C16.9898 2.055 16.9548 2.1026 16.911 2.14194L6.36303 12.3952C6.3259 12.43 6.28185 12.4572 6.23357 12.4749C6.18529 12.4927 6.1338 12.5007 6.08223 12.4984C5.96755 12.4987 5.85606 12.4618 5.76543 12.3934L1.08903 7.81719C1.0442 7.78614 1.00794 7.74483 0.983451 7.6969C0.958962 7.64898 0.947003 7.59593 0.948633 7.54244C0.948633 7.42869 0.995433 7.32719 1.08903 7.23619L2.07363 6.27894C2.11409 6.23641 2.16306 6.20236 2.21754 6.17889C2.27201 6.15542 2.33085 6.14301 2.39043 6.14244C2.46963 6.14244 2.53623 6.16169 2.59383 6.20194L6.08223 9.59344L15.3288 0.568687Z" fill="#00A3FF"/>
</svg>
